<?xml version="1.0" standalone="no"?>
<!DOCTYPE svg PUBLIC "-//W3C//DTD SVG 20010904//EN"
 "http://www.w3.org/TR/2001/REC-SVG-20010904/DTD/svg10.dtd">
<svg version="1.0" xmlns="http://www.w3.org/2000/svg"
 width="88.000000pt" height="81.000000pt" viewBox="0 0 88.000000 81.000000"
 preserveAspectRatio="xMidYMid meet">

<g transform="translate(0.000000,81.000000) scale(0.100000,-0.100000)"
fill="#000000" stroke="none">
<path d="M0 405 l0 -405 440 0 440 0 0 405 0 405 -440 0 -440 0 0 -405z m521
269 c35 -17 39 -31 39 -123 0 -111 -11 -121 -136 -121 -87 0 -97 -2 -119 -25
-20 -19 -25 -34 -25 -75 0 -46 -2 -50 -25 -50 -72 0 -109 56 -103 156 3 49 9
69 28 89 22 24 29 25 132 25 65 0 108 4 108 10 0 6 -28 10 -65 10 l-65 0 0 38
c0 47 24 72 78 83 46 9 118 1 153 -17z m149 -149 c32 -34 41 -145 16 -193 -23
-45 -43 -52 -158 -54 -80 -1 -88 -3 -35 -5 l67 -4 0 -44 c0 -36 -5 -48 -24
-60 -33 -22 -122 -30 -174 -16 -62 17 -75 43 -70 142 5 110 16 119 144 119
116 0 134 12 134 90 l0 50 38 0 c28 0 45 -7 62 -25z"/>
<path d="M337 644 c-14 -14 -7 -35 11 -32 9 2 17 10 17 17 0 16 -18 25 -28 15z"/>
<path d="M493 224 c-7 -19 11 -39 26 -30 16 10 13 33 -4 40 -9 3 -18 -1 -22
-10z"/>
</g>
</svg>
